 <svg  version="1.0" xmlns="http://www.w3.org/2000/svg"  width="300.000000pt" height="400.000000pt" viewBox="0 0 300.000000 400.000000"  preserveAspectRatio="xMidYMid meet">  <g transform="translate(0.000000,400.000000) scale(0.100000,-0.100000)" fill="#ff0000" stroke="none"> <path d="M2715 3194 c-303 -44 -411 -80 -485 -160 -76 -82 -91 -146 -120 -504 -11 -140 -26 -306 -34 -369 -15 -136 -13 -154 26 -186 50 -42 125 -28 152 29 8 17 23 107 33 201 l18 170 50 27 c56 30 164 62 286 83 90 16 113 30 129 81 17 49 -12 105 -61 121 -42 13 -185 -9 -312 -50 l-78 -25 6 56 c22 202 39 239 123 266 77 25 269 56 381 62 57 3 113 10 123 15 27 14 51 75 43 109 -3 15 -17 38 -31 51 -23 22 -35 24 -122 25 -53 1 -110 0 -127 -2z"/> <path d="M1495 2986 c-121 -31 -241 -126 -314 -250 -85 -143 -138 -358 -127 -517 15 -225 112 -355 274 -367 136 -9 257 43 365 158 129 136 197 328 197 552 0 163 -31 265 -106 348 -67 74 -182 104 -289 76z m138 -214 c32 -35 50 -97 54 -187 13 -236 -113 -474 -275 -521 -69 -20 -98 -12 -126 36 -29 49 -35 210 -11 317 33 155 127 307 217 352 54 26 119 28 141 3z"/> <path d="M430 2804 c-190 -51 -345 -252 -407 -528 -22 -98 -22 -294 0 -366 54 -181 176 -261 348 -232 245 42 432 287 468 613 22 198 -22 364 -122 456 -74 68 -172 88 -287 57z m152 -211 c37 -43 51 -89 56 -183 13 -272 -140 -524 -322 -532 -40 -2 -50 1 -66 22 -27 36 -40 97 -40 190 0 209 106 436 232 499 53 26 119 28 140 4z"/> <path d="M2435 1834 c-529 -25 -1098 -121 -1651 -279 -256 -73 -424 -132 -451 -157 -51 -48 -36 -129 30 -161 l37 -19 168 56 c672 223 1424 356 2009 356 137 0 182 3 208 15 61 30 73 104 26 157 l-29 33 -139 1 c-76 1 -169 0 -208 -2z"/> <path d="M2295 1269 c-346 -36 -786 -125 -1160 -235 -156 -46 -190 -70 -190 -134 0 -35 6 -47 33 -71 18 -16 44 -29 59 -29 14 0 78 16 142 34 397 118 873 211 1211 236 80 6 156 13 168 16 73 15 97 110 43 165 -29 28 -32 29 -128 28 -54 -1 -134 -5 -178 -10z"/> </g> </svg>  